<svg width="286" height="286" viewBox="0 0 286 286" fill="none" xmlns="http://www.w3.org/2000/svg">
<g opacity="0.8" clip-path="url(#clip0_68_264)">
<path d="M0.0571289 0H286V286C253.796 -1.4872 90.6619 174.403 0.0571289 0Z" fill="#00BFBA"/>
<path d="M29.458 157.071H67.8964L257.629 155.241L268.954 176.062H20.4204L29.458 157.071Z" fill="#C2D5FF"/>
<path d="M198.599 113.828H90.6621L102.903 101.873H188.188L198.599 113.828Z" fill="#C2D5FF"/>
<path d="M90.8336 176.062H20.4204V286H90.8336V176.062Z" fill="#548CFF"/>
<path d="M90.7764 176.062H82.082V286H90.7764V176.062Z" fill="#2C67DE"/>
<path d="M198.656 113.828H90.6621V286H198.656V113.828Z" fill="#A1BFFF"/>
<path d="M198.656 113.828H90.6621V286H198.656V113.828Z" fill="#82AAFF"/>
<path d="M76.3619 237.437H31.5171V273.588H76.3619V237.437Z" fill="#275ACF"/>
<path d="M76.3619 198.026H31.5171V231.488H76.3619V198.026Z" fill="#275ACF"/>
<path d="M31.6318 231.488V198.026H76.4766L31.6318 231.488Z" fill="#3071FF"/>
<path d="M31.6318 270.899V237.437H76.4766L31.6318 270.899Z" fill="#3071FF"/>
<path d="M268.954 176.062H198.541V286H268.954V176.062Z" fill="#548CFF"/>
<path d="M254.483 237.437H209.638V273.588H254.483V237.437Z" fill="#275ACF"/>
<path d="M254.483 198.026H209.638V231.488H254.483V198.026Z" fill="#275ACF"/>
<path d="M209.81 231.488V198.026H254.597L209.81 231.488Z" fill="#3071FF"/>
<path d="M209.81 270.899V237.437H254.597L209.81 270.899Z" fill="#3071FF"/>
<path d="M179.379 222.68H146.089V286H179.379V222.68Z" fill="#275ACF"/>
<path d="M140.998 222.68H107.708V286H140.998V222.68Z" fill="#275ACF"/>
<path d="M107.708 286V222.68H140.998L107.708 286Z" fill="#3071FF"/>
<path d="M146.089 286V222.68H179.436L146.089 286Z" fill="#3071FF"/>
<path d="M187.273 187.788H177.606V205.119H187.273V187.788Z" fill="#3071FF"/>
<path d="M168.454 187.788H158.787V205.119H168.454V187.788Z" fill="#3071FF"/>
<path d="M149.578 187.788H139.911V205.119H149.578V187.788Z" fill="#3071FF"/>
<path d="M130.759 187.788H121.092V205.119H130.759V187.788Z" fill="#3071FF"/>
<path d="M111.94 187.788H102.273V205.119H111.94V187.788Z" fill="#3071FF"/>
<path d="M187.273 161.132H177.606V178.464H187.273V161.132Z" fill="#3071FF"/>
<path d="M168.454 161.132H158.787V178.464H168.454V161.132Z" fill="#3071FF"/>
<path d="M149.578 161.132H139.911V178.464H149.578V161.132Z" fill="#3071FF"/>
<path d="M130.759 161.132H121.092V178.464H130.759V161.132Z" fill="#3071FF"/>
<path d="M111.94 161.132H102.273V178.464H111.94V161.132Z" fill="#3071FF"/>
<path d="M187.273 134.477H177.606V151.809H187.273V134.477Z" fill="#3071FF"/>
<path d="M168.454 134.477H158.787V151.809H168.454V134.477Z" fill="#3071FF"/>
<path d="M149.578 134.477H139.911V151.809H149.578V134.477Z" fill="#3071FF"/>
<path d="M130.759 134.477H121.092V151.809H130.759V134.477Z" fill="#3071FF"/>
<path d="M111.94 134.477H102.273V151.809H111.94V134.477Z" fill="#3071FF"/>
<path d="M191.22 223.652H96.4966L100.386 215.587H187.902L191.22 223.652Z" fill="#D9E5FF"/>
<path d="M149.655 135.153C157.832 131.697 161.659 122.267 158.203 114.091C154.747 105.914 145.317 102.087 137.14 105.543C128.964 108.999 125.137 118.429 128.593 126.605C132.049 134.782 141.478 138.609 149.655 135.153Z" fill="#BA4ABA"/>
<path d="M159.244 126.497C160.679 117.736 154.74 109.471 145.979 108.037C137.218 106.602 128.953 112.541 127.519 121.302C126.084 130.062 132.023 138.327 140.784 139.762C149.545 141.196 157.81 135.257 159.244 126.497Z" fill="#FF65FF"/>
<path d="M143.401 133.104C141.627 133.104 140.14 131.617 140.14 129.844V118.004C140.14 116.23 141.627 114.743 143.401 114.743C145.174 114.743 146.661 116.23 146.661 118.004V129.844C146.661 131.617 145.174 133.104 143.401 133.104Z" fill="white"/>
<path d="M134.249 123.895C134.249 122.122 135.736 120.635 137.509 120.635H149.292C151.065 120.635 152.553 122.122 152.553 123.895C152.553 125.668 151.065 127.156 149.292 127.156H137.452C135.679 127.156 134.249 125.726 134.249 123.895Z" fill="white"/>
<path d="M191.163 223.652H96.4966V235.492H191.163V223.652Z" fill="#C2D5FF"/>
<path d="M99.5278 151.809H190.762" stroke="#292685" stroke-miterlimit="10" stroke-linecap="round" stroke-linejoin="round"/>
<path d="M99.5278 178.464H190.762" stroke="#292685" stroke-miterlimit="10" stroke-linecap="round" stroke-linejoin="round"/>
<path d="M99.5278 205.119H190.762" stroke="#292685" stroke-miterlimit="10" stroke-linecap="round" stroke-linejoin="round"/>
<path d="M223.08 237.437H202.659C199.285 237.437 196.539 234.692 196.539 231.317V213.413C196.539 210.038 199.285 207.293 202.659 207.293H223.08C226.455 207.293 229.2 210.038 229.2 213.413V231.317C229.2 234.692 226.455 237.437 223.08 237.437Z" fill="white"/>
<path d="M199.857 232.918L198.255 244.187C198.026 245.674 199.742 246.646 200.886 245.731L212.555 236.465L199.857 232.918Z" fill="white"/>
<path d="M213.413 232.003C218.721 232.003 223.023 227.701 223.023 222.394C223.023 217.086 218.721 212.784 213.413 212.784C208.106 212.784 203.804 217.086 203.804 222.394C203.804 227.701 208.106 232.003 213.413 232.003Z" fill="#BA4ABA"/>
<path d="M222.908 225.906C223.763 220.668 220.209 215.729 214.971 214.874C209.732 214.02 204.793 217.574 203.939 222.812C203.084 228.05 206.638 232.989 211.876 233.844C217.115 234.698 222.054 231.144 222.908 225.906Z" fill="#FF65FF"/>
<path d="M213.07 221.936L212.841 222.05C212.212 222.279 211.525 221.993 211.296 221.421L210.724 220.106C210.496 219.476 210.782 218.79 211.354 218.561L211.582 218.447C212.212 218.218 212.898 218.504 213.127 219.076L213.699 220.392C213.985 220.964 213.699 221.65 213.07 221.936Z" fill="white" stroke="white" stroke-width="1.4852" stroke-miterlimit="10"/>
<path d="M216.845 229.944L215.93 230.344C215.358 230.573 214.672 230.287 214.386 229.715L213.871 228.457C213.642 227.885 213.928 227.198 214.5 226.912L215.415 226.512C215.987 226.283 216.674 226.569 216.96 227.141L217.475 228.4C217.703 228.972 217.417 229.658 216.845 229.944Z" fill="white" stroke="white" stroke-width="1.4852" stroke-miterlimit="10"/>
<path d="M215.644 230.344C211.754 231.717 207.007 220.048 211.297 218.561C211.297 218.561 212.04 219.076 212.212 219.591C211.468 222.622 212.212 225.768 215.358 227.141L216.159 229.086C216.33 229.544 216.102 230.116 215.644 230.344Z" fill="white" stroke="white" stroke-width="1.4852" stroke-miterlimit="10"/>
<path d="M73.5022 82.4252C73.5022 80.5948 72.015 79.1076 70.1846 79.1076C70.0702 75.6184 67.2102 72.8156 63.721 72.8156C60.8038 72.8156 58.3442 74.7604 57.5434 77.4488C56.7426 77.8492 56.0562 78.4212 55.6558 79.1648C55.4842 79.1076 55.2554 79.1076 55.0266 79.1076C53.1962 79.1076 51.709 80.5948 51.709 82.4252C51.709 84.1984 53.0818 85.6284 54.7978 85.7428H70.4706C72.1294 85.6284 73.5022 84.1984 73.5022 82.4252Z" fill="#ADC7FF"/>
<path d="M243.214 121.035C243.214 118.919 241.498 117.26 239.439 117.26C239.325 113.313 236.064 110.11 232.06 110.11C228.743 110.11 225.94 112.341 225.025 115.372C224.11 115.773 223.366 116.516 222.851 117.374C222.622 117.317 222.394 117.317 222.165 117.317C220.048 117.317 218.39 119.033 218.39 121.092C218.39 123.094 219.934 124.696 221.879 124.868H239.668C241.613 124.696 243.214 123.094 243.214 121.035Z" fill="#ADC7FF"/>
<g opacity="0.32">
<path d="M242.356 79.2792L233.948 76.648C233.376 76.4764 233.09 75.9044 233.261 75.3324L235.893 66.924C236.064 66.352 236.636 66.066 237.208 66.2376L245.617 68.8688C246.189 69.0404 246.475 69.6124 246.303 70.1844L243.672 78.5928C243.5 79.1076 242.928 79.4508 242.356 79.2792ZM235.549 74.932L241.956 76.934L243.958 70.5276L237.551 68.5256L235.549 74.932Z" fill="white"/>
</g>
<g opacity="0.24">
<path d="M31.8605 76.934C28.7717 76.934 26.2549 74.4172 26.2549 71.3284C26.2549 68.2396 28.7717 65.7228 31.8605 65.7228C34.9493 65.7228 37.4661 68.2396 37.4661 71.3284C37.4661 74.4172 34.9493 76.934 31.8605 76.934ZM31.8605 68.068C30.0873 68.068 28.6001 69.5552 28.6001 71.3284C28.6001 73.1016 30.0873 74.5888 31.8605 74.5888C33.6337 74.5888 35.1209 73.1016 35.1209 71.3284C35.1209 69.5552 33.6909 68.068 31.8605 68.068Z" fill="white"/>
</g>
<path d="M130.702 79.2792C132.361 79.2792 164.679 79.2792 164.679 79.2792" stroke="white" stroke-width="0.9459" stroke-miterlimit="10" stroke-linecap="round" stroke-linejoin="round"/>
<path opacity="0.28" d="M66.6952 185.385C66.6952 186.586 65.7228 187.502 64.5788 187.502C63.3776 187.502 62.4624 186.529 62.4624 185.385C62.4624 184.184 63.4348 183.269 64.5788 183.269C65.7228 183.269 66.6952 184.241 66.6952 185.385Z" fill="white"/>
<path d="M57.5022 264.151H97.771V241.557H57.5022V264.151Z" stroke="white" stroke-width="0.6164" stroke-miterlimit="10" stroke-linecap="round" stroke-linejoin="round"/>
<path d="M121.55 281.996H104.161L95.9814 266.323" stroke="white" stroke-width="0.6164" stroke-miterlimit="10" stroke-linecap="round" stroke-linejoin="round"/>
<path d="M91.1195 248.877H62.5767" stroke="white" stroke-width="0.5688" stroke-miterlimit="10" stroke-linecap="round" stroke-linejoin="round"/>
<path d="M91.1195 252.881H62.5767" stroke="white" stroke-width="0.5688" stroke-miterlimit="10" stroke-linecap="round" stroke-linejoin="round"/>
<path d="M91.1198 257.228H70.585" stroke="white" stroke-width="0.5688" stroke-miterlimit="10" stroke-linecap="round" stroke-linejoin="round"/>
</g>
<defs>
<clipPath id="clip0_68_264">
<rect width="286" height="286" fill="white"/>
</clipPath>
</defs>
</svg>
