<svg width="99" height="98" viewBox="0 0 99 98" fill="none" xmlns="http://www.w3.org/2000/svg">
<path d="M41.1995 40.8334C50.2202 40.8334 57.5329 33.5207 57.5329 24.5001C57.5329 15.4794 50.2202 8.16676 41.1995 8.16676C32.1789 8.16676 24.8662 15.4794 24.8662 24.5001C24.8662 33.5207 32.1789 40.8334 41.1995 40.8334Z" stroke="white" stroke-width="3.75"/>
<path d="M77.9495 35.4898L75.8314 37.7018C77.0156 38.8357 78.8833 38.8357 80.0675 37.7018L77.9495 35.4898ZM75.8527 48.0238C74.1462 46.7714 72.2659 45.2075 70.8424 43.5615C69.3385 41.8228 68.762 40.4713 68.762 39.5951H62.637C62.637 42.7387 64.4385 45.5207 66.2095 47.5681C68.0604 49.7085 70.3508 51.5836 72.2295 52.9621L75.8527 48.0238ZM68.762 39.5951C68.762 37.2429 69.8342 36.2193 70.7706 35.8911C71.7926 35.5328 73.6856 35.647 75.8314 37.7018L80.0675 33.2777C76.7012 30.0546 72.4692 28.8052 68.7444 30.111C64.9338 31.4468 62.637 35.1149 62.637 39.5951H68.762ZM83.6694 52.9621C85.5481 51.5836 87.8385 49.7085 89.6895 47.5681C91.4604 45.5207 93.262 42.7387 93.262 39.595H87.137C87.137 40.4713 86.5604 41.8232 85.0565 43.5615C83.6331 45.2079 81.7527 46.7714 80.0463 48.0238L83.6694 52.9621ZM93.262 39.595C93.262 35.1149 90.9651 31.4468 87.1545 30.111C83.4297 28.8052 79.1977 30.0546 75.8314 33.2777L80.0675 37.7018C82.2133 35.647 84.1063 35.5328 85.1284 35.8911C86.0647 36.2193 87.137 37.2429 87.137 39.595H93.262ZM72.2295 52.9621C73.7346 54.0663 75.4243 55.442 77.9495 55.442V49.317C77.8498 49.317 77.7882 49.3165 77.566 49.1994C77.2153 49.014 76.7767 48.7016 75.8527 48.0238L72.2295 52.9621ZM80.0463 48.0238C79.1222 48.7016 78.6836 49.014 78.3329 49.1994C78.1108 49.3165 78.0491 49.317 77.9495 49.317V55.442C80.4746 55.442 82.1643 54.0663 83.6694 52.9621L80.0463 48.0238Z" fill="white"/>
<path d="M73.8561 73.5001C73.8663 72.8296 73.8663 72.1485 73.8663 71.4584C73.8663 61.3101 59.241 53.0834 41.1996 53.0834C23.1583 53.0834 8.53296 61.3101 8.53296 71.4584C8.53296 81.6067 8.53296 89.8334 41.1996 89.8334C50.3095 89.8334 56.8788 89.1936 61.6163 88.0507" stroke="white" stroke-width="3.75" stroke-linecap="round"/>
</svg>
