<svg width="98" height="98" viewBox="0 0 98 98" fill="none" xmlns="http://www.w3.org/2000/svg">
<path d="M49 40.8333C58.0207 40.8333 65.3334 33.5207 65.3334 24.5C65.3334 15.4794 58.0207 8.16667 49 8.16667C39.9794 8.16667 32.6667 15.4794 32.6667 24.5C32.6667 33.5207 39.9794 40.8333 49 40.8333Z" stroke="white" stroke-width="3.75"/>
<path d="M81.6564 73.5C81.6666 72.8295 81.6666 72.1484 81.6666 71.4583C81.6666 61.31 67.0414 53.0833 49 53.0833C30.9587 53.0833 16.3333 61.31 16.3333 71.4583C16.3333 81.6066 16.3333 89.8333 49 89.8333C58.1099 89.8333 64.6792 89.1935 69.4166 88.0505" stroke="white" stroke-width="3.75" stroke-linecap="round"/>
</svg>
