<svg width="99" height="98" viewBox="0 0 99 98" fill="none" xmlns="http://www.w3.org/2000/svg">
<path d="M16.6995 85.7501C16.6995 71.3502 27.3476 59.4375 41.1995 57.4563M81.5126 62.0823C81.2341 62.099 80.9536 62.1076 80.6719 62.1076C76.4885 62.1076 72.6726 60.2391 69.7828 57.1668C66.893 60.2391 63.0772 62.1072 58.8938 62.1072C58.612 62.1072 58.3315 62.0986 58.053 62.0819C57.7133 63.6401 57.5328 65.2742 57.5328 66.9582C57.5328 75.9995 62.7383 83.5961 69.7828 85.7501C76.8274 83.5961 82.0328 75.9995 82.0328 66.9582C82.0328 65.2742 81.8523 63.6401 81.5126 62.0823ZM61.6162 28.5834C61.6162 37.6041 54.3033 44.9168 45.2828 44.9168C36.2622 44.9168 28.9495 37.6041 28.9495 28.5834C28.9495 19.5628 36.2622 12.2501 45.2828 12.2501C54.3033 12.2501 61.6162 19.5628 61.6162 28.5834Z" stroke="white" stroke-width="5" stroke-linecap="round" stroke-linejoin="round"/>
</svg>
