<svg width="54" height="54" viewBox="0 0 54 54" fill="none" xmlns="http://www.w3.org/2000/svg">
<path d="M26.7101 53.4512C41.4617 53.4512 53.4202 41.4857 53.4202 26.7256C53.4202 11.9655 41.4617 0 26.7101 0C11.9585 0 0 11.9655 0 26.7256C0 41.4857 11.9585 53.4512 26.7101 53.4512Z" fill="#0095DA"/>
<path d="M26.8098 0.00178528V53.4512C41.5159 53.3977 53.4202 41.4541 53.4202 26.7274C53.4202 12.0003 41.515 0.0570145 26.8098 0.00356329V0.00178528Z" fill="#3C9CD7"/>
<path d="M26.808 12.2831C21.9012 12.2831 17.9089 15.803 17.9089 20.1294C17.9089 24.4557 21.9012 27.9756 26.808 27.9756C31.7156 27.9756 35.7078 24.4557 35.7078 20.1294C35.7078 15.803 31.7156 12.2831 26.808 12.2831ZM26.808 24.7598C23.6687 24.7598 21.1229 22.6868 21.1229 20.1294C21.1229 17.5723 23.6685 15.4989 26.808 15.4989C29.9483 15.4989 32.4939 17.5724 32.4939 20.1294C32.4939 22.6868 29.9483 24.7598 26.808 24.7598Z" fill="#F1F2F2"/>
<path d="M39.734 37.708C39.734 38.2144 39.1601 38.6249 38.4524 38.6249H15.1648C14.457 38.6249 13.8831 38.2142 13.8831 37.708V21.0466C13.8831 20.5402 14.457 20.1295 15.1648 20.1295H38.4524C39.1603 20.1295 39.734 20.5402 39.734 21.0466V37.708Z" fill="#FF8F9A"/>
<path d="M26.8098 20.1297H15.166C14.4582 20.1297 13.8843 20.5404 13.8843 21.0468V37.7082C13.8843 38.2146 14.4582 38.6251 15.166 38.6251H26.8098V20.1292V20.1297Z" fill="#FF6D7A"/>
<path d="M30.9036 28.3149H27.8771V25.5028C27.8771 24.8468 27.346 24.3144 26.69 24.3144C26.0345 24.3144 25.5028 24.8468 25.5028 25.5028V28.3149H22.4764C21.8207 28.3149 21.2892 28.8469 21.2892 29.5027C21.2892 30.1593 21.8207 30.6906 22.4764 30.6906H25.5028V33.5034C25.5028 34.1592 26.0345 34.6911 26.69 34.6911C27.346 34.6911 27.8771 34.1592 27.8771 33.5034V30.6906H30.9036C31.5592 30.6906 32.0908 30.1593 32.0908 29.5027C32.0908 28.8471 31.559 28.3149 30.9036 28.3149Z" fill="#F1F2F2"/>
<path d="M25.6221 25.5015V28.3136H22.596C21.94 28.3136 21.4089 28.8456 21.4089 29.5015C21.4089 30.158 21.94 30.6893 22.596 30.6893H25.6221V33.5021C25.6221 34.158 26.1537 34.6898 26.8097 34.6898V24.3131C26.1537 24.3131 25.6221 24.8457 25.6221 25.5015Z" fill="white"/>
</svg>
