<svg width="500" height="360" viewBox="0 0 500 360" fill="none" xmlns="http://www.w3.org/2000/svg">
<g opacity="0.8">
<path d="M1.8999 57.3V429.9C1.8999 429.9 113.6 463.7 262.5 409.8C332.6 384.4 337.2 265 269.2 232.4C194 196.3 79.1999 177.7 1.8999 11V57.3Z" fill="#00BFBA"/>
<path opacity="0.33" d="M1.8999 223.2V429.8C1.8999 429.8 113.6 463.6 262.5 409.7C271.2 406.6 278.8 402 285.5 396.3C146.6 400.8 52.6999 299.6 1.8999 223.2Z" fill="#2555C4"/>
<path d="M328.8 449.7C359.9 448.9 447 438.9 463 352.4V252.5C463 234.7 446.5 220.8 429.1 224.8C417.9 227.4 407.6 237 404.7 262.5C391 387.2 275.4 407.8 304.7 439.8C310.9 446.5 319.7 450 328.8 449.7Z" fill="url(#paint0_linear_34_513)"/>
<path d="M91.5999 255.7C93.6999 255.7 93.6999 252.5 91.5999 252.5C89.4999 252.4 89.4999 255.7 91.5999 255.7Z" fill="#D6E3FF"/>
<path d="M292.1 117.6L244.3 175.5" stroke="#BFD3FF" stroke-width="1.0825" stroke-miterlimit="10"/>
<path d="M313.2 116L246.8 196.3" stroke="#BFD3FF" stroke-width="1.0825" stroke-miterlimit="10"/>
<path d="M329.2 119.6L253.1 211.8" stroke="#BFD3FF" stroke-width="1.0825" stroke-miterlimit="10"/>
<path d="M369.4 181.4L321.5 239.3" stroke="#BFD3FF" stroke-width="1.0825" stroke-miterlimit="10"/>
<path d="M362 211.3L346.9 229.6" stroke="#BFD3FF" stroke-width="1.0825" stroke-miterlimit="10"/>
<path d="M264.9 131.2L249.8 149.4" stroke="#BFD3FF" stroke-width="1.0825" stroke-miterlimit="10"/>
<path d="M366.9 160.4L300.6 240.7" stroke="#BFD3FF" stroke-width="1.0825" stroke-miterlimit="10"/>
<path d="M360.3 145.4L284.3 237.5" stroke="#BFD3FF" stroke-width="1.0825" stroke-miterlimit="10"/>
<path d="M342.8 126.7L262.8 223.6" stroke="#BFD3FF" stroke-width="1.0825" stroke-miterlimit="10"/>
<path d="M352.6 134.8L272.6 231.7" stroke="#BFD3FF" stroke-width="1.0825" stroke-miterlimit="10"/>
<path d="M113.8 301L66 358.9" stroke="#BFD3FF" stroke-width="1.0825" stroke-miterlimit="10"/>
<path d="M134.9 299.4L68.5 379.7" stroke="#BFD3FF" stroke-width="1.0825" stroke-miterlimit="10"/>
<path d="M150.9 303L74.7998 395.1" stroke="#BFD3FF" stroke-width="1.0825" stroke-miterlimit="10"/>
<path d="M86.6 314.6L71.5 332.8" stroke="#BFD3FF" stroke-width="1.0825" stroke-miterlimit="10"/>
<path d="M188.6 343.8L122.3 424.1" stroke="#BFD3FF" stroke-width="1.0825" stroke-miterlimit="10"/>
<path d="M182 328.8L106 420.9" stroke="#BFD3FF" stroke-width="1.0825" stroke-miterlimit="10"/>
<path d="M164.5 310.1L84.5 407" stroke="#BFD3FF" stroke-width="1.0825" stroke-miterlimit="10"/>
<path d="M174.3 318.2L94.2998 415.1" stroke="#BFD3FF" stroke-width="1.0825" stroke-miterlimit="10"/>
<path fill-rule="evenodd" clip-rule="evenodd" d="M194.5 106.2C194.5 106.2 217.1 106.7 225.3 118C233.5 129.3 228.4 126.8 235.7 154.1C241.5 175.8 211.3 173.4 210 172.9C208.7 172.5 194.5 106.2 194.5 106.2Z" fill="#142585"/>
<path fill-rule="evenodd" clip-rule="evenodd" d="M124.1 300.4L118.3 325C116.1 334.6 117.6 344.6 122.7 353.1L149.5 397.8L166.1 374.7L141.1 337.7L165.6 305.6L124.1 300.4Z" fill="#F5B8B0"/>
<path d="M439.7 187.8H343.5C339.7 187.8 336.5 184.7 336.5 180.8V127.5C336.5 123.7 339.6 120.5 343.5 120.5H439.7C443.5 120.5 446.7 123.6 446.7 127.5V180.8C446.7 184.6 443.6 187.8 439.7 187.8Z" fill="#E6EDFF"/>
<path d="M422.4 248.2H341.1C338.5 248.2 336.4 246.1 336.4 243.5V215.9C336.4 213.3 338.5 211.2 341.1 211.2H422.4C425 211.2 427.1 213.3 427.1 215.9V243.5C427.1 246.1 425 248.2 422.4 248.2Z" fill="#E6EDFF"/>
<path d="M411.2 238.1H310.2C307.1 238.1 304.6 235.6 304.6 232.5V201.6C304.6 198.5 307.1 196 310.2 196H411.2C414.3 196 416.8 198.5 416.8 201.6V232.5C416.8 235.6 414.3 238.1 411.2 238.1Z" fill="#A1BFFF"/>
<path d="M426.4 181.8H309.8C305.1 181.8 301.3 178 301.3 173.3V108.8C301.3 104.1 305.1 100.3 309.8 100.3H426.3C431 100.3 434.8 104.1 434.8 108.8V173.3C434.8 178 431 181.8 426.4 181.8Z" fill="#A1BFFF"/>
<path d="M352.133 152.176C357.495 141.396 353.104 128.311 342.325 122.948C331.545 117.586 318.46 121.977 313.097 132.756C307.735 143.535 312.126 156.621 322.905 161.983C333.684 167.346 346.77 162.955 352.133 152.176Z" fill="white"/>
<path d="M340 203.5C336.9 204.4 334.9 206.7 333.4 208.6C333 209.2 332.1 209.2 331.6 208.6C330.1 206.5 327.9 204 324.9 203.4C319.2 202.3 315.2 207.4 316.9 213.1C318.7 220.1 332.5 231 332.5 231H332.8C332.8 231 346.4 220.3 348.1 213.3C349.8 207.6 346.2 201.6 340 203.5Z" fill="white"/>
<path d="M334.4 222.9C333.9 222.9 333.4 222.6 333.3 222.1L330.8 215.3L329.6 218.5C329.4 219 329 219.3 328.5 219.3H324.2C323.9 219.3 323.7 219.1 323.7 218.8C323.7 218.1 324.6 217.2 325.3 217.2H327.8L329.7 212.2C329.9 211.7 330.3 211.4 330.8 211.4C331.3 211.4 331.7 211.7 331.9 212.2L334.4 219.1L335.4 216.8C335.6 216.4 336 216.1 336.5 216.1H341.1C341.4 216.1 341.6 216.3 341.6 216.6C341.6 217.3 340.7 218.2 340 218.2H337.1L335.4 222.2C335.3 222.6 334.9 222.9 334.4 222.9Z" fill="#3071FF"/>
<path d="M289.6 129.6C306.61 129.6 320.4 115.81 320.4 98.8C320.4 81.7896 306.61 68 289.6 68C272.589 68 258.8 81.7896 258.8 98.8C258.8 115.81 272.589 129.6 289.6 129.6Z" fill="#FF65FF"/>
<path d="M289.6 116.4C286.2 116.4 283.3 113.6 283.3 110.1V87.5C283.3 84.1 286.1 81.2 289.6 81.2C293 81.2 295.9 84 295.9 87.5V110.2C295.9 113.6 293.1 116.4 289.6 116.4Z" fill="white"/>
<path d="M354.4 217.7C354.4 215.5 356.2 213.6 358.5 213.6H405.2C407.4 213.6 409.3 215.4 409.3 217.7C409.3 219.9 407.5 221.8 405.2 221.8H358.5C356.2 221.8 354.4 220 354.4 217.7Z" fill="white"/>
<path d="M360 151.8C360 149.6 361.8 147.7 364.1 147.7H410.8C413 147.7 414.9 149.5 414.9 151.8C414.9 154 413.1 155.9 410.8 155.9H364.1C361.8 155.9 360 154 360 151.8Z" fill="white"/>
<path d="M360 133.9C360 131.7 361.8 129.8 364.1 129.8H423.2C425.4 129.8 427.3 131.6 427.3 133.9C427.3 136.1 425.5 138 423.2 138H364C361.8 138 360 136.2 360 133.9Z" fill="white"/>
<path d="M272 98.8C272 95.4 274.8 92.5 278.3 92.5H301C304.4 92.5 307.3 95.3 307.3 98.8C307.3 102.2 304.5 105.1 301 105.1H278.3C274.9 105.1 272 102.3 272 98.8Z" fill="white"/>
<path d="M342.5 150.2C342.2 147.4 340.3 145.4 338.9 144.7C338.3 144.4 337.7 144.3 337.2 144C336.9 143.9 336.6 143.7 336.2 143.6C335.9 143.5 335.7 143.4 335.4 143.3H335.3L334.9 143.2C334.8 143.1 334.6 143 334.5 142.9L334.3 142.7C334.3 142.6 334.3 142.6 334.3 142.5C334.3 142 334.3 141.4 334.4 140.9C334.7 140.6 335 140.3 335.2 139.8C335.3 139.5 335.4 139.2 335.5 138.8C336.4 138.7 336.6 137.7 336.7 136.9C336.8 136.3 337 134.8 336 134.8C336 134.7 336 134.6 336.1 134.6C336.2 134.1 336.3 133.6 336.3 133.1C336.3 132.6 336.2 132.1 336 131.7C335.9 131.6 335.8 131.4 335.6 131.4C335.7 131.3 335.7 131.1 335.7 131C335.7 129.8 334.5 129.1 333.7 128.8C333 128.5 332.2 128.4 331.4 128.4C330.6 128.4 329.9 128.6 329.1 128.8C328.3 129.1 327.1 129.7 327.1 131C327.1 131.2 327.1 131.3 327.2 131.4C327 131.4 326.9 131.6 326.8 131.7C326.6 132.1 326.5 132.6 326.5 133.1C326.5 133.6 326.6 134.1 326.7 134.6C326.7 134.7 326.7 134.8 326.8 134.8C325.9 134.8 326 136.3 326.1 136.9C326.2 137.6 326.5 138.7 327.3 138.8C327.4 139.1 327.4 139.5 327.6 139.8C327.8 140.2 328.1 140.6 328.4 140.9C328.4 141.4 328.4 142 328.5 142.5C328.5 142.5 328.5 142.6 328.5 142.7C328.5 142.7 328.3 142.8 328.3 142.9C328.2 143 328 143.1 327.9 143.2L327.5 143.3H327.4C327.2 143.4 326.9 143.5 326.6 143.6C326.3 143.7 326 143.9 325.6 144C325 144.3 324.4 144.4 323.9 144.7C322.5 145.4 320.6 147.3 320.3 150.2C320.2 151.5 320.9 152.4 322.2 152.4L331.4 152.5L340.6 152.4C341.9 152.4 342.7 151.6 342.5 150.2Z" fill="#3071FF"/>
<path fill-rule="evenodd" clip-rule="evenodd" d="M159.5 351C159.5 351 133.1 381.3 128.5 420.9C123.9 460.4 131.8 500 131.8 500H240L237 365.2L159.5 351Z" fill="#CFDEFF"/>
<path fill-rule="evenodd" clip-rule="evenodd" d="M229.2 348.7C196.8 385.6 216.6 408.3 213.2 436.7C208.5 475.1 202.1 469.4 209 500H240L237 365.2L229.2 348.7Z" fill="#E6EEFF"/>
<path fill-rule="evenodd" clip-rule="evenodd" d="M145.1 160.7C144.7 161 160 205.2 185.1 196.8C210.2 188.3 185 137 185 137L145.1 160.7Z" fill="#142585"/>
<path fill-rule="evenodd" clip-rule="evenodd" d="M175.6 235.4L169.4 295.6C169.4 295.6 129.7 286.3 129.5 285C120.9 212.1 170.2 212.8 170.2 212.8L175.6 235.4Z" fill="#82AAFF"/>
<path fill-rule="evenodd" clip-rule="evenodd" d="M206 183.4C206 183.4 203.9 203.4 202.2 219.9C201.7 224.3 198.9 228.1 194.9 229.9C190.8 231.7 186.1 231.1 182.6 228.4C181.4 227.5 180.3 226.7 179.3 225.9C174.5 222.2 172.2 216.1 173.4 210.2C176.6 195 182.4 167.2 182.4 167.2L206 183.4Z" fill="#F5B8B0"/>
<path fill-rule="evenodd" clip-rule="evenodd" d="M205 193.7C205 193.7 198.4 194.6 192.2 189.5C192.2 189.5 198.7 199.8 204.1 201.8L205 193.7Z" fill="#E09F98"/>
<path fill-rule="evenodd" clip-rule="evenodd" d="M164.2 143.4C162.6 135.2 168 127.2 176.2 125.6C185 123.9 196.1 121.8 204.8 120.1C213 118.5 218.8 124.6 222.6 132.1C227.2 141.3 229.8 159.1 230.6 173.3C231 181.7 225.9 190 217.8 192.4C203.8 196.6 174.4 189.7 172.8 181.5C170.4 169.4 166.5 155.5 164.2 143.4Z" fill="#F5B8B0"/>
<path fill-rule="evenodd" clip-rule="evenodd" d="M139.5 138.2C139.5 138.2 174.8 83.4 218 117.2C218 117.2 223.5 169.1 146.9 168C125.5 167.7 139.5 138.2 139.5 138.2Z" fill="#142585"/>
<path fill-rule="evenodd" clip-rule="evenodd" d="M208.1 260.1L205.5 232.3L294 281.6L360.7 266.9L374.7 278.7C374.7 278.7 333.1 298.2 307.6 308C299.7 311 290.9 310.7 283.2 307.2C265.8 299.1 235.7 285.1 235.7 285.1L208.1 260.1Z" fill="#F5B8B0"/>
<path fill-rule="evenodd" clip-rule="evenodd" d="M246.9 299.3L249.9 301.1C249.9 301.1 265.6 263.6 264.7 262.6C244.2 239.6 227.8 229 215 224.9C211.1 223.7 207.3 222.2 203.6 220.5C193.6 215.9 178.7 219.1 173.6 214.1C172.3 212.8 173.3 210.2 173.3 210.2L159.7 214.2C159.7 214.2 149.7 218.5 148.4 228.5C144.3 259.5 145.7 269.1 153 300C155.6 311.3 157.7 348.6 154.4 357.7C145.4 383.2 234.6 373.9 235.5 362.4C235.5 362.4 241.9 346.2 243.1 332C244.1 320.8 245.7 309.1 246.9 299.3Z" fill="#CFDEFF"/>
<path fill-rule="evenodd" clip-rule="evenodd" d="M374.7 278.7C374.7 278.7 383.3 270 391.2 261.4C399.9 252 398.6 246.7 388.6 242.1C385.8 240.8 377.5 243.9 377.5 243.9L366.6 257.8C366.6 257.8 352 271.9 358.8 278.9C365.5 285.8 374.7 278.7 374.7 278.7Z" fill="#F5B8B0"/>
<path fill-rule="evenodd" clip-rule="evenodd" d="M389.4 245.7C389.4 245.7 402.8 236.6 400.3 230.7C397.9 224.9 377.5 243.8 377.5 243.8L383.6 253.2L389.4 245.7Z" fill="#F5B8B0"/>
<path fill-rule="evenodd" clip-rule="evenodd" d="M175.9 198.2C175.9 198.2 207.4 195.9 197.2 147.1C187 98.3 163.5 167.3 163.5 167.3L175.9 198.2Z" fill="#142585"/>
<path fill-rule="evenodd" clip-rule="evenodd" d="M208.5 166.9C208.6 173.7 203.1 179.3 196.3 179.4C189.5 179.5 183.9 174 183.8 167.2C183.7 160.4 189.2 154.8 196 154.7C202.9 154.6 208.5 160.1 208.5 166.9Z" fill="#F5B8B0"/>
<path fill-rule="evenodd" clip-rule="evenodd" d="M246.9 299.3C245.7 309.1 244.1 320.8 243.2 331.8C242 346.1 237 365.1 237 365.1C236.7 368.9 228.7 370.1 214.5 371.4C217.3 358.4 230.7 358.6 225.4 331.6C222.8 318.5 226.6 303.6 226.1 284.7L246.9 299.3Z" fill="#E6EEFF"/>
<path d="M223 226.5L211.7 217.6L161.5 209.7C161.5 209.7 167.4 231.7 189.4 227.1C202.1 224.4 223 226.5 223 226.5Z" fill="#F0F0F0"/>
<path fill-rule="evenodd" clip-rule="evenodd" d="M158.9 155.7C163 140.2 146.9 126.9 132.7 134.2C124.1 138.6 116.6 146.3 116.1 159.8C114.9 191.7 73.4997 198.7 91.3997 235.7C106.5 266.7 52.1997 272.5 93.3997 315.5C131 354.8 172.1 301.5 160.9 279.8C149.7 258 138.7 244.7 153 230.3C174.8 208.3 168.2 194.7 158.1 180.1C153.4 173.3 156.5 165.1 158.9 155.7Z" fill="#142585"/>
<path fill-rule="evenodd" clip-rule="evenodd" d="M118.2 154.2C118.2 154.2 108.9 173.8 99.0997 180.6C89.2997 187.3 95.0997 210.2 95.0997 210.2L96.6997 199.1C96.6997 199.1 94.5997 189.7 99.4997 185.1C104.4 180.5 116 174.4 119 166C122.2 157.5 118.2 154.2 118.2 154.2Z" fill="#142585"/>
<path fill-rule="evenodd" clip-rule="evenodd" d="M181 133.3C181 133.3 188.2 126.7 199.6 156.7C202.7 164.9 190 168.2 196.9 173.1C203.8 178 209.5 152.4 203.4 144C197.3 135.6 192.2 128.6 192.1 121.5C192 114.4 181 133.3 181 133.3Z" fill="#142585"/>
<g opacity="0.32">
<path d="M71.9999 243.7L54.0999 238.1C52.8999 237.7 52.2999 236.5 52.5999 235.3L58.1999 217.4C58.5999 216.2 59.7999 215.6 60.9999 215.9L78.8999 221.5C80.0999 221.9 80.6999 223.1 80.3999 224.3L74.7999 242.2C74.3999 243.5 73.1999 244.1 71.9999 243.7ZM57.5999 234.6L71.2999 238.9L75.5999 225.2L61.8999 220.9L57.5999 234.6Z" fill="white"/>
</g>
<path d="M55.7998 186.4C59.2998 186.4 103.8 186.4 103.8 186.4" stroke="white" stroke-width="0.9459" stroke-miterlimit="10" stroke-linecap="round" stroke-linejoin="round"/>
<path opacity="0.28" d="M71.6997 347.9C71.6997 350.4 69.6997 352.4 67.1997 352.4C64.6997 352.4 62.6997 350.4 62.6997 347.9C62.6997 345.4 64.6997 343.4 67.1997 343.4C69.6997 343.4 71.6997 345.4 71.6997 347.9Z" fill="white"/>
<path opacity="0.28" d="M260.6 342.6C260.6 345.1 258.6 347.1 256.1 347.1C253.6 347.1 251.6 345.1 251.6 342.6C251.6 340.1 253.6 338.1 256.1 338.1C258.5 338 260.6 340.1 260.6 342.6Z" fill="white"/>
<path opacity="0.28" d="M434 324.6C434 327.1 432 329.1 429.5 329.1C427 329.1 425 327.1 425 324.6C425 322.1 427 320.1 429.5 320.1C432 320.1 434 322.1 434 324.6Z" fill="white"/>
<path opacity="0.28" d="M62.1001 138.8C62.1001 141.3 60.1001 143.3 57.6001 143.3C55.1001 143.3 53.1001 141.3 53.1001 138.8C53.1001 136.3 55.1001 134.3 57.6001 134.3C60.1001 134.3 62.1001 136.3 62.1001 138.8Z" fill="white"/>
</g>
<defs>
<linearGradient id="paint0_linear_34_513" x1="299.984" y1="336.97" x2="463.069" y2="336.97" gradientUnits="userSpaceOnUse">
<stop stop-color="#2E6DFF"/>
<stop offset="0.016475" stop-color="#2F6EFF"/>
<stop offset="0.6665" stop-color="#598CFF"/>
<stop offset="1" stop-color="#6997FF"/>
</linearGradient>
</defs>
</svg>
